<svg viewBox="0 0 100 100" fill="#6366f1" xmlns="http://www.w3.org/2000/svg">
  <path d="M50 0L64.6447 14.6447L50 29.2893L35.3553 14.6447L50 0Z" />
  <path d="M85.3553 35.3553L100 50L85.3553 64.6447L70.7107 50L85.3553 35.3553Z" />
  <path d="M50 70.7107L64.6447 85.3553L50 100L35.3553 85.3553L50 70.7107Z" />
  <path d="M14.6447 35.3553L29.2893 50L14.6447 64.6447L0 50L14.6447 35.3553Z" />
  <path d="M29.2893 29.2893L50 8.57864L70.7107 29.2893L91.4214 50L70.7107 70.7107L50 91.4214L29.2893 70.7107L8.57864 50L29.2893 29.2893ZM50 22.7107L36.3553 36.3553L50 50L63.6447 36.3553L50 22.7107ZM63.6447 63.6447L50 50L36.3553 63.6447L50 77.2893L63.6447 63.6447Z" />
</svg>